<?xml version="1.0" encoding="UTF-8" standalone="no" ?>
<!DOCTYPE svg PUBLIC "-//W3C//DTD SVG 1.1//EN" "http://www.w3.org/Graphics/SVG/1.1/DTD/svg11.dtd">
<svg xmlns="http://www.w3.org/2000/svg" version="1.1" viewBox="0 0 759 1124" xmlns:xlink="http://www.w3.org/1999/xlink">
   <rect x="2" y="2" fill="none" width="755" height="1120" stroke="#d0d0e8" stroke-width="1"/>
   <polygon fill="#ffffff" points="2,2 2,22 201,22 208,15 208,2 2,2" stroke="#d0d0e8" stroke-width="1" stroke-linejoin="miter"/>
   <text x="6" y="16" fill="#000000" font-size="12" font-family="'Arial Nova'">Sequence diagram automatic trade</text>
   <polyline fill="none" points="299,992 353,992 353,1018 298,1018" stroke="#8080c0" stroke-width="2" stroke-dasharray="16,8"/>
   <polyline fill="none" points="312,1014 298,1018 312,1022" stroke="#8080c0" stroke-width="2"/>
   <text x="415" y="983" fill="#000000" font-size="12" font-family="'Arial Nova'" text-anchor="middle">updateInventory &amp;&amp; updateWallet &amp;&amp; save</text>
   <polyline fill="none" points="696,964 302,964" stroke="#8080c0" stroke-width="2" stroke-dasharray="16,8"/>
   <polyline fill="none" points="316,960 302,964 316,968" stroke="#8080c0" stroke-width="2"/>
   <text x="497" y="956" fill="#000000" font-size="12" font-family="'Arial Nova'" text-anchor="middle">trade</text>
   <polyline fill="none" points="299,936 693,936" stroke="#8080c0" stroke-width="2"/>
   <polygon fill="#8080c0" points="696,936 682,939 682,933" stroke="#8080c0" stroke-width="2" stroke-linejoin="miter"/>
   <text x="496" y="926" fill="#000000" font-size="12" font-family="'Arial Nova'" text-anchor="middle">createTrade(newOrder, matchedOrder, newOrder.remainingQuantity)</text>
   <polyline fill="none" points="295,894 333,894 333,916 302,916" stroke="#8080c0" stroke-width="2"/>
   <polygon fill="#8080c0" points="299,916 313,913 313,919" stroke="#8080c0" stroke-width="2" stroke-linejoin="miter"/>
   <text x="415" y="886" fill="#000000" font-size="12" font-family="'Arial Nova'" text-anchor="middle">tradeWithDeficit(newOrder, matchedOrder)</text>
   <polyline fill="none" points="299,821 337,821 337,843 298,843" stroke="#8080c0" stroke-width="2" stroke-dasharray="16,8"/>
   <polyline fill="none" points="312,839 298,843 312,847" stroke="#8080c0" stroke-width="2"/>
   <text x="415" y="812" fill="#000000" font-size="12" font-family="'Arial Nova'" text-anchor="middle">updateInventory &amp;&amp; updateWallet &amp;&amp; save</text>
   <polyline fill="none" points="696,782 302,782" stroke="#8080c0" stroke-width="2" stroke-dasharray="16,8"/>
   <polyline fill="none" points="316,778 302,782 316,786" stroke="#8080c0" stroke-width="2"/>
   <text x="497" y="775" fill="#000000" font-size="12" font-family="'Arial Nova'" text-anchor="middle">trade</text>
   <polyline fill="none" points="299,759 693,759" stroke="#8080c0" stroke-width="2"/>
   <polygon fill="#8080c0" points="696,759 682,762 682,756" stroke="#8080c0" stroke-width="2" stroke-linejoin="miter"/>
   <text x="497" y="754" fill="#000000" font-size="12" font-family="'Arial Nova'" text-anchor="middle">createTrade(newOrder, matchedOrder, matchedOrder.remainingQuantity)</text>
   <polyline fill="none" points="295,718 336,718 336,739 302,739" stroke="#8080c0" stroke-width="2"/>
   <polygon fill="#8080c0" points="299,739 313,736 313,742" stroke="#8080c0" stroke-width="2" stroke-linejoin="miter"/>
   <text x="415" y="711" fill="#000000" font-size="12" font-family="'Arial Nova'" text-anchor="middle">tradeWithSurplus(newOrder, matchedOrder)</text>
   <polyline fill="none" points="295,622 343,622 343,645 298,645" stroke="#8080c0" stroke-width="2"/>
   <polyline fill="none" points="312,641 298,645 312,649" stroke="#8080c0" stroke-width="2"/>
   <text x="407" y="611" fill="#000000" font-size="12" font-family="'Arial Nova'" text-anchor="middle">closeOrder(matchedOrder) &amp;&amp; continue</text>
   <polyline fill="none" points="295,533 340,533 340,556 288,556" stroke="#8080c0" stroke-width="2" stroke-dasharray="16,8"/>
   <polyline fill="none" points="302,552 288,556 302,560" stroke="#8080c0" stroke-width="2"/>
   <text x="405" y="541" fill="#000000" font-size="12" font-family="'Arial Nova'" text-anchor="middle">closeOrder &amp;&amp; return</text>
   <polyline fill="none" points="295,463 341,463 341,485 288,485" stroke="#8080c0" stroke-width="2" stroke-dasharray="16,8"/>
   <polyline fill="none" points="302,481 288,485 302,489" stroke="#8080c0" stroke-width="2"/>
   <text x="365" y="472" fill="#000000" font-size="12" font-family="'Arial Nova'" text-anchor="middle">return</text>
   <polyline fill="none" points="295,371 336,371 336,392 298,392" stroke="#8080c0" stroke-width="2"/>
   <polygon fill="#8080c0" points="295,392 309,389 309,395" stroke="#8080c0" stroke-width="2" stroke-linejoin="miter"/>
   <text x="375" y="365" fill="#000000" font-size="12" font-family="'Arial Nova'" text-anchor="middle">makeTrades(matchedOrders)</text>
   <polyline fill="none" points="585,331 298,331" stroke="#8080c0" stroke-width="2" stroke-dasharray="16,8"/>
   <polyline fill="none" points="312,327 298,331 312,335" stroke="#8080c0" stroke-width="2"/>
   <text x="440" y="325" fill="#000000" font-size="12" font-family="'Arial Nova'" text-anchor="middle">matchedOrders</text>
   <polyline fill="none" points="295,303 582,303" stroke="#8080c0" stroke-width="2"/>
   <polygon fill="#8080c0" points="585,303 571,306 571,300" stroke="#8080c0" stroke-width="2" stroke-linejoin="miter"/>
   <text x="437" y="298" fill="#000000" font-size="12" font-family="'Arial Nova'" text-anchor="middle">getOpenBuyHigherPricedOlderOrders(price)</text>
   <polyline fill="none" points="585,265 298,265" stroke="#8080c0" stroke-width="2" stroke-dasharray="16,8"/>
   <polyline fill="none" points="312,261 298,265 312,269" stroke="#8080c0" stroke-width="2"/>
   <text x="440" y="258" fill="#000000" font-size="12" font-family="'Arial Nova'" text-anchor="middle">matchedOrders</text>
   <polyline fill="none" points="295,231 582,231" stroke="#8080c0" stroke-width="2"/>
   <polygon fill="#8080c0" points="585,231 571,234 571,228" stroke="#8080c0" stroke-width="2" stroke-linejoin="miter"/>
   <text x="439" y="224" fill="#000000" font-size="12" font-family="'Arial Nova'" text-anchor="middle">getOpenSellLowerPricedOlderOrders(price)</text>
   <polyline fill="none" points="291,170 332,170 332,191 298,191" stroke="#8080c0" stroke-width="2"/>
   <polygon fill="#8080c0" points="295,191 309,188 309,194" stroke="#8080c0" stroke-width="2" stroke-linejoin="miter"/>
   <text x="395" y="164" fill="#000000" font-size="12" font-family="'Arial Nova'" text-anchor="middle">automaticMatchOrders(newOrder)</text>
   <polyline fill="none" points="277,1097 179,1097" stroke="#8080c0" stroke-width="2" stroke-dasharray="16,8"/>
   <polyline fill="none" points="192,1093 179,1097 192,1101" stroke="#8080c0" stroke-width="2"/>
   <text x="226" y="1090" fill="#000000" font-size="12" font-family="'Arial Nova'" text-anchor="middle">toDto(order)</text>
   <polyline fill="none" points="162,1102 62,1102" stroke="#8080c0" stroke-width="2" stroke-dasharray="16,8"/>
   <polyline fill="none" points="75,1098 62,1102 75,1106" stroke="#8080c0" stroke-width="2"/>
   <text x="110" y="1094" fill="#000000" font-size="12" font-family="'Arial Nova'" text-anchor="middle">orderDto</text>
   <defs>
      <linearGradient id="Gradient1" x1="0%" x2="100%" y1="0%" y2="100%" gradientUnits="objectBoundingBox">
         <stop offset="5%" stop-color="#ffffff"/>
         <stop offset="95%" stop-color="#ecf9ff"/>
      </linearGradient>
   </defs>
   <rect x="20" y="40" fill="url(#Gradient1)" width="64" height="48" stroke="#0080ff" stroke-width="2"/>
   <text x="52" y="66" fill="#000000" font-size="12" font-family="'Arial Nova'" text-anchor="middle" text-decoration="underline">Client</text>
   <polyline fill="none" points="52,88 52,1167" stroke="#0080ff" stroke-width="2" stroke-dasharray="3,3"/>
   <defs>
      <linearGradient id="Gradient2" x1="0%" x2="100%" y1="0%" y2="100%" gradientUnits="objectBoundingBox">
         <stop offset="5%" stop-color="#ffffff"/>
         <stop offset="95%" stop-color="#d0d0ff"/>
      </linearGradient>
   </defs>
   <rect x="46" y="94" fill="url(#Gradient2)" width="12" height="1013" stroke="#000080" stroke-width="2"/>
   <defs>
      <linearGradient id="Gradient3" x1="0%" x2="100%" y1="0%" y2="100%" gradientUnits="objectBoundingBox">
         <stop offset="5%" stop-color="#ffffff"/>
         <stop offset="95%" stop-color="#d0d0e8"/>
      </linearGradient>
   </defs>
   <ellipse cx="52" cy="142" rx="3" ry="3" fill="url(#Gradient3)" stroke="#000080" stroke-width="2"/>
   <defs>
      <linearGradient id="Gradient4" x1="0%" x2="100%" y1="0%" y2="100%" gradientUnits="objectBoundingBox">
         <stop offset="5%" stop-color="#ffffff"/>
         <stop offset="95%" stop-color="#ecf9ff"/>
      </linearGradient>
   </defs>
   <rect x="242" y="40" fill="url(#Gradient4)" width="84" height="48" stroke="#0080ff" stroke-width="2"/>
   <text x="284" y="66" fill="#000000" font-size="12" font-family="'Arial Nova'" text-anchor="middle" text-decoration="underline">OrderService</text>
   <polyline fill="none" points="284,88 284,1178" stroke="#0080ff" stroke-width="2" stroke-dasharray="3,3"/>
   <defs>
      <linearGradient id="Gradient5" x1="0%" x2="100%" y1="0%" y2="100%" gradientUnits="objectBoundingBox">
         <stop offset="5%" stop-color="#ffffff"/>
         <stop offset="95%" stop-color="#d0d0ff"/>
      </linearGradient>
   </defs>
   <rect x="278" y="94" fill="url(#Gradient5)" width="12" height="1003" stroke="#000080" stroke-width="2"/>
   <defs>
      <linearGradient id="Gradient6" x1="0%" x2="100%" y1="0%" y2="100%" gradientUnits="objectBoundingBox">
         <stop offset="5%" stop-color="#ffffff"/>
         <stop offset="95%" stop-color="#d0d0ff"/>
      </linearGradient>
   </defs>
   <rect x="282" y="191" fill="url(#Gradient6)" width="12" height="189" stroke="#000080" stroke-width="2"/>
   <defs>
      <linearGradient id="Gradient7" x1="0%" x2="100%" y1="0%" y2="100%" gradientUnits="objectBoundingBox">
         <stop offset="5%" stop-color="#ffffff"/>
         <stop offset="95%" stop-color="#d0d0ff"/>
      </linearGradient>
   </defs>
   <rect x="282" y="391" fill="url(#Gradient7)" width="12" height="647" stroke="#000080" stroke-width="2"/>
   <defs>
      <linearGradient id="Gradient8" x1="0%" x2="100%" y1="0%" y2="100%" gradientUnits="objectBoundingBox">
         <stop offset="5%" stop-color="#ffffff"/>
         <stop offset="95%" stop-color="#d0d0ff"/>
      </linearGradient>
   </defs>
   <rect x="286" y="739" fill="url(#Gradient8)" width="12" height="82" stroke="#000080" stroke-width="2"/>
   <defs>
      <linearGradient id="Gradient9" x1="0%" x2="100%" y1="0%" y2="100%" gradientUnits="objectBoundingBox">
         <stop offset="5%" stop-color="#ffffff"/>
         <stop offset="95%" stop-color="#d0d0ff"/>
      </linearGradient>
   </defs>
   <rect x="286" y="915" fill="url(#Gradient9)" width="12" height="77" stroke="#000080" stroke-width="2"/>
   <defs>
      <linearGradient id="Gradient10" x1="0%" x2="100%" y1="0%" y2="100%" gradientUnits="objectBoundingBox">
         <stop offset="5%" stop-color="#ffffff"/>
         <stop offset="95%" stop-color="#d0d0e8"/>
      </linearGradient>
   </defs>
   <ellipse cx="284" cy="142" rx="3" ry="3" fill="url(#Gradient10)" stroke="#000080" stroke-width="2"/>
   <defs>
      <linearGradient id="Gradient11" x1="0%" x2="100%" y1="0%" y2="100%" gradientUnits="objectBoundingBox">
         <stop offset="5%" stop-color="#ffffff"/>
         <stop offset="95%" stop-color="#d0d0e8"/>
      </linearGradient>
   </defs>
   <ellipse cx="284" cy="205" rx="3" ry="3" fill="url(#Gradient11)" stroke="#000080" stroke-width="2"/>
   <defs>
      <linearGradient id="Gradient12" x1="0%" x2="100%" y1="0%" y2="100%" gradientUnits="objectBoundingBox">
         <stop offset="5%" stop-color="#ffffff"/>
         <stop offset="95%" stop-color="#d0d0e8"/>
      </linearGradient>
   </defs>
   <ellipse cx="284" cy="676" rx="3" ry="3" fill="url(#Gradient12)" stroke="#000080" stroke-width="2"/>
   <defs>
      <linearGradient id="Gradient13" x1="0%" x2="100%" y1="0%" y2="100%" gradientUnits="objectBoundingBox">
         <stop offset="5%" stop-color="#ffffff"/>
         <stop offset="95%" stop-color="#d0d0e8"/>
      </linearGradient>
   </defs>
   <ellipse cx="284" cy="574" rx="3" ry="3" fill="url(#Gradient13)" stroke="#000080" stroke-width="2"/>
   <defs>
      <linearGradient id="Gradient14" x1="0%" x2="100%" y1="0%" y2="100%" gradientUnits="objectBoundingBox">
         <stop offset="5%" stop-color="#ffffff"/>
         <stop offset="95%" stop-color="#d0d0e8"/>
      </linearGradient>
   </defs>
   <ellipse cx="284" cy="508" rx="3" ry="3" fill="url(#Gradient14)" stroke="#000080" stroke-width="2"/>
   <defs>
      <linearGradient id="Gradient15" x1="0%" x2="100%" y1="0%" y2="100%" gradientUnits="objectBoundingBox">
         <stop offset="5%" stop-color="#ffffff"/>
         <stop offset="95%" stop-color="#d0d0e8"/>
      </linearGradient>
   </defs>
   <ellipse cx="284" cy="441" rx="3" ry="3" fill="url(#Gradient15)" stroke="#000080" stroke-width="2"/>
   <defs>
      <linearGradient id="Gradient16" x1="0%" x2="100%" y1="0%" y2="100%" gradientUnits="objectBoundingBox">
         <stop offset="5%" stop-color="#ffffff"/>
         <stop offset="95%" stop-color="#d0d0e8"/>
      </linearGradient>
   </defs>
   <ellipse cx="284" cy="415" rx="3" ry="3" fill="url(#Gradient16)" stroke="#000080" stroke-width="2"/>
   <defs>
      <linearGradient id="Gradient17" x1="0%" x2="100%" y1="0%" y2="100%" gradientUnits="objectBoundingBox">
         <stop offset="5%" stop-color="#ffffff"/>
         <stop offset="95%" stop-color="#ecf9ff"/>
      </linearGradient>
   </defs>
   <rect x="120" y="40" fill="url(#Gradient17)" width="97" height="48" stroke="#0080ff" stroke-width="2"/>
   <text x="168" y="66" fill="#000000" font-size="12" font-family="'Arial Nova'" text-anchor="middle" text-decoration="underline">OrderController</text>
   <polyline fill="none" points="169,88 169,1167" stroke="#0080ff" stroke-width="2" stroke-dasharray="3,3"/>
   <defs>
      <linearGradient id="Gradient18" x1="0%" x2="100%" y1="0%" y2="100%" gradientUnits="objectBoundingBox">
         <stop offset="5%" stop-color="#ffffff"/>
         <stop offset="95%" stop-color="#d0d0ff"/>
      </linearGradient>
   </defs>
   <rect x="163" y="98" fill="url(#Gradient18)" width="12" height="1004" stroke="#000080" stroke-width="2"/>
   <defs>
      <linearGradient id="Gradient19" x1="0%" x2="100%" y1="0%" y2="100%" gradientUnits="objectBoundingBox">
         <stop offset="5%" stop-color="#ffffff"/>
         <stop offset="95%" stop-color="#d0d0e8"/>
      </linearGradient>
   </defs>
   <ellipse cx="169" cy="142" rx="3" ry="3" fill="url(#Gradient19)" stroke="#000080" stroke-width="2"/>
   <defs>
      <linearGradient id="Gradient20" x1="0%" x2="100%" y1="0%" y2="100%" gradientUnits="objectBoundingBox">
         <stop offset="5%" stop-color="#ffffff"/>
         <stop offset="95%" stop-color="#ecf9ff"/>
      </linearGradient>
   </defs>
   <rect x="540" y="40" fill="url(#Gradient20)" width="103" height="48" stroke="#0080ff" stroke-width="2"/>
   <text x="591" y="66" fill="#000000" font-size="12" font-family="'Arial Nova'" text-anchor="middle" text-decoration="underline">OrderRepository</text>
   <polyline fill="none" points="592,88 592,1167" stroke="#0080ff" stroke-width="2" stroke-dasharray="3,3"/>
   <defs>
      <linearGradient id="Gradient21" x1="0%" x2="100%" y1="0%" y2="100%" gradientUnits="objectBoundingBox">
         <stop offset="5%" stop-color="#ffffff"/>
         <stop offset="95%" stop-color="#d0d0ff"/>
      </linearGradient>
   </defs>
   <rect x="586" y="230" fill="url(#Gradient21)" width="12" height="35" stroke="#000080" stroke-width="2"/>
   <defs>
      <linearGradient id="Gradient22" x1="0%" x2="100%" y1="0%" y2="100%" gradientUnits="objectBoundingBox">
         <stop offset="5%" stop-color="#ffffff"/>
         <stop offset="95%" stop-color="#d0d0ff"/>
      </linearGradient>
   </defs>
   <rect x="586" y="303" fill="url(#Gradient22)" width="12" height="28" stroke="#000080" stroke-width="2"/>
   <defs>
      <linearGradient id="Gradient23" x1="0%" x2="100%" y1="0%" y2="100%" gradientUnits="objectBoundingBox">
         <stop offset="5%" stop-color="#ffffff"/>
         <stop offset="95%" stop-color="#d0d0e8"/>
      </linearGradient>
   </defs>
   <ellipse cx="592" cy="142" rx="3" ry="3" fill="url(#Gradient23)" stroke="#000080" stroke-width="2"/>
   <defs>
      <linearGradient id="Gradient24" x1="0%" x2="100%" y1="0%" y2="100%" gradientUnits="objectBoundingBox">
         <stop offset="5%" stop-color="#ffffff"/>
         <stop offset="95%" stop-color="#d0d0e8"/>
      </linearGradient>
   </defs>
   <ellipse cx="592" cy="205" rx="3" ry="3" fill="url(#Gradient24)" stroke="#000080" stroke-width="2"/>
   <defs>
      <linearGradient id="Gradient25" x1="0%" x2="100%" y1="0%" y2="100%" gradientUnits="objectBoundingBox">
         <stop offset="5%" stop-color="#ffffff"/>
         <stop offset="95%" stop-color="#d0d0e8"/>
      </linearGradient>
   </defs>
   <ellipse cx="592" cy="415" rx="3" ry="3" fill="url(#Gradient25)" stroke="#000080" stroke-width="2"/>
   <defs>
      <linearGradient id="Gradient26" x1="0%" x2="100%" y1="0%" y2="100%" gradientUnits="objectBoundingBox">
         <stop offset="5%" stop-color="#ffffff"/>
         <stop offset="95%" stop-color="#d0d0e8"/>
      </linearGradient>
   </defs>
   <ellipse cx="592" cy="508" rx="3" ry="3" fill="url(#Gradient26)" stroke="#000080" stroke-width="2"/>
   <defs>
      <linearGradient id="Gradient27" x1="0%" x2="100%" y1="0%" y2="100%" gradientUnits="objectBoundingBox">
         <stop offset="5%" stop-color="#ffffff"/>
         <stop offset="95%" stop-color="#d0d0e8"/>
      </linearGradient>
   </defs>
   <ellipse cx="592" cy="574" rx="3" ry="3" fill="url(#Gradient27)" stroke="#000080" stroke-width="2"/>
   <defs>
      <linearGradient id="Gradient28" x1="0%" x2="100%" y1="0%" y2="100%" gradientUnits="objectBoundingBox">
         <stop offset="5%" stop-color="#ffffff"/>
         <stop offset="95%" stop-color="#d0d0e8"/>
      </linearGradient>
   </defs>
   <ellipse cx="592" cy="441" rx="3" ry="3" fill="url(#Gradient28)" stroke="#000080" stroke-width="2"/>
   <defs>
      <linearGradient id="Gradient29" x1="0%" x2="100%" y1="0%" y2="100%" gradientUnits="objectBoundingBox">
         <stop offset="5%" stop-color="#ffffff"/>
         <stop offset="95%" stop-color="#d0d0e8"/>
      </linearGradient>
   </defs>
   <ellipse cx="592" cy="676" rx="3" ry="3" fill="url(#Gradient29)" stroke="#000080" stroke-width="2"/>
      <defs>
      <linearGradient id="Gradient30" x1="0%" x2="100%" y1="0%" y2="100%" gradientUnits="objectBoundingBox">
         <stop offset="5%" stop-color="#ffffff"/>
         <stop offset="95%" stop-color="#ecf9ff"/>
      </linearGradient>
   </defs>
   <rect x="660" y="40" fill="url(#Gradient30)" width="85" height="48" stroke="#0080ff" stroke-width="2"/>
   <text x="702" y="66" fill="#000000" font-size="12" font-family="'Arial Nova'" text-anchor="middle" text-decoration="underline">TradeService</text>
   <polyline fill="none" points="703,88 703,1178" stroke="#0080ff" stroke-width="2" stroke-dasharray="3,3"/>
   <defs>
      <linearGradient id="Gradient31" x1="0%" x2="100%" y1="0%" y2="100%" gradientUnits="objectBoundingBox">
         <stop offset="5%" stop-color="#ffffff"/>
         <stop offset="95%" stop-color="#d0d0ff"/>
      </linearGradient>
   </defs>
   <rect x="697" y="759" fill="url(#Gradient31)" width="12" height="23" stroke="#000080" stroke-width="2"/>
   <defs>
      <linearGradient id="Gradient32" x1="0%" x2="100%" y1="0%" y2="100%" gradientUnits="objectBoundingBox">
         <stop offset="5%" stop-color="#ffffff"/>
         <stop offset="95%" stop-color="#d0d0ff"/>
      </linearGradient>
   </defs>
   <rect x="697" y="936" fill="url(#Gradient32)" width="12" height="28" stroke="#000080" stroke-width="2"/>
   <text x="66" y="155" fill="#000000" font-size="10" font-family="'Arial Nova'">[Enabled Auto Trade]</text>
   <polyline fill="none" points="31,142 664,142 664,1070 31,1070 31,142" stroke="#d0d0e8" stroke-width="4"/>
   <polygon fill="#ffffff" points="31,142 31,161 55,161 61,155 61,142 31,142" stroke="#d0d0e8" stroke-width="4" stroke-linejoin="miter"/>
   <text x="35" y="154" fill="#000000" font-size="12" font-family="'Arial Nova'">opt</text>
   <text x="236" y="216" fill="#000000" font-size="10" font-family="'Arial Nova'">Buy Order</text>
   <polyline fill="none" points="208,277 624,277" stroke="#000000" stroke-width="1" stroke-dasharray="16,8"/>
   <text x="230" y="291" fill="#000000" font-size="10" font-family="'Arial Nova'">Sell Order</text>
   <polyline fill="none" points="208,205 624,205 624,341 208,341 208,205" stroke="#d0d0e8" stroke-width="2"/>
   <polygon fill="#ffffff" points="208,205 208,224 228,224 234,218 234,205 208,205" stroke="#d0d0e8" stroke-width="2" stroke-linejoin="miter"/>
   <text x="212" y="216" fill="#000000" font-size="12" font-family="'Arial Nova'">alt</text>
   <text x="300" y="429" fill="#000000" font-size="10" font-family="'Arial Nova'">[Foreach matchedOrder]</text>
   <polyline fill="none" points="210,415 651,415 651,1049 210,1049 210,415" stroke="#d0d0e8" stroke-width="2"/>
   <polygon fill="#ffffff" points="210,415 210,433 240,433 246,427 246,415 210,415" stroke="#d0d0e8" stroke-width="2" stroke-linejoin="miter"/>
   <text x="214" y="428" fill="#000000" font-size="12" font-family="'Arial Nova'">loop</text>
   <text x="300" y="454" fill="#000000" font-size="10" font-family="'Arial Nova'">[newOrder is Closed]</text>
   <polyline fill="none" points="243,441 642,441 642,496 243,496 243,441" stroke="#d0d0e8" stroke-width="2"/>
   <polygon fill="#ffffff" points="243,441 243,460 281,460 287,454 287,441 243,441" stroke="#d0d0e8" stroke-width="2" stroke-linejoin="miter"/>
   <text x="247" y="454" fill="#000000" font-size="12" font-family="'Arial Nova'">break</text>
   <text x="296" y="520" fill="#000000" font-size="10" font-family="'Arial Nova'">[notEnoughItems(newOrder) || notEnoughBalance(newOrder)]</text>
   <polyline fill="none" points="245,508 639,508 639,565 245,565 245,508" stroke="#d0d0e8" stroke-width="2"/>
   <polygon fill="#ffffff" points="245,508 245,526 283,526 289,520 289,508 245,508" stroke="#d0d0e8" stroke-width="2" stroke-linejoin="miter"/>
   <text x="249" y="521" fill="#000000" font-size="12" font-family="'Arial Nova'">break</text>
   <text x="296" y="588" fill="#000000" font-size="10" font-family="'Arial Nova'">[notEnoughItems(matchedOrder) || notEnoughBalance(matchedOrder)]</text>
   <polyline fill="none" points="245,574 637,574 637,658 245,658 245,574" stroke="#d0d0e8" stroke-width="2"/>
   <polygon fill="#ffffff" points="245,574 245,592 283,592 289,586 289,574 245,574" stroke="#d0d0e8" stroke-width="2" stroke-linejoin="miter"/>
   <text x="249" y="587" fill="#000000" font-size="12" font-family="'Arial Nova'">break</text>
   <text x="298" y="690" fill="#000000" font-size="10" font-family="'Arial Nova'">newOrder.remainingQuantity &gt;= matchedOrder.remainingQuantity</text>
   <polyline fill="none" points="247,853 637,853" stroke="#000000" stroke-width="1" stroke-dasharray="16,8"/>
   <text x="298" y="867" fill="#000000" font-size="10" font-family="'Arial Nova'">newOrder.remainingQuantity &lt; matchedOrder.remainingQuantity</text>
   <polyline fill="none" points="247,676 637,676 637,1026 247,1026 247,676" stroke="#d0d0e8" stroke-width="2"/>
   <polygon fill="#ffffff" points="247,676 247,695 267,695 273,689 273,676 247,676" stroke="#d0d0e8" stroke-width="2" stroke-linejoin="miter"/>
   <text x="251" y="689" fill="#000000" font-size="12" font-family="'Arial Nova'">alt</text>
</svg>
