<?xml version="1.0" encoding="UTF-8" standalone="no" ?>
<!DOCTYPE svg PUBLIC "-//W3C//DTD SVG 1.1//EN" "http://www.w3.org/Graphics/SVG/1.1/DTD/svg11.dtd">
<svg xmlns="http://www.w3.org/2000/svg" version="1.1" viewBox="0 0 496 522" xmlns:xlink="http://www.w3.org/1999/xlink">
   <rect x="2" y="2" fill="none" width="492" height="518" stroke="#d0d0e8" stroke-width="1"/>
   <polygon fill="#ffffff" points="2,2 2,22 290,22 297,15 297,2 2,2" stroke="#d0d0e8" stroke-width="1" stroke-linejoin="miter"/>
   <text x="6" y="15" fill="#000000" font-size="14" font-family="'Arial Nova'">Дијаграм секвенце постављање поруџбине</text>
   <polyline fill="none" points="429,223 75,223" stroke="#8080c0" stroke-width="2"/>
   <polyline fill="none" points="89,219 75,223 89,227" stroke="#8080c0" stroke-width="2"/>
   <text x="252" y="198" fill="#000000" font-size="14" font-family="'Arial Nova'" text-anchor="middle">поруџбина креирана,  извршене размене,</text>
   <text x="252" y="214" fill="#000000" font-size="14" font-family="'Arial Nova'" text-anchor="middle">уколико постоје, по цени без попуста</text>
   <polyline fill="none" points="429,472 75,472" stroke="#8080c0" stroke-width="2"/>
   <polyline fill="none" points="89,468 75,472 89,476" stroke="#8080c0" stroke-width="2"/>
   <text x="251" y="462" fill="#000000" font-size="14" font-family="'Arial Nova'" text-anchor="middle">размена успешно извршена</text>
   <polyline fill="none" points="75,413 429,413" stroke="#8080c0" stroke-width="2"/>
   <polyline fill="none" points="416,417 429,413 416,409" stroke="#8080c0" stroke-width="2"/>
   <text x="252" y="404" fill="#000000" font-size="14" font-family="'Arial Nova'" text-anchor="middle">изврши размену са продавцем(продајна поруџбина)</text>
   <polyline fill="none" points="429,370 75,370" stroke="#8080c0" stroke-width="2"/>
   <polyline fill="none" points="89,366 75,370 89,374" stroke="#8080c0" stroke-width="2"/>
   <text x="252" y="365" fill="#000000" font-size="14" font-family="'Arial Nova'" text-anchor="middle">продајне поруџбине:= поруџбине, са попустом</text>
   <polyline fill="none" points="75,328 429,328" stroke="#8080c0" stroke-width="2"/>
   <polyline fill="none" points="416,332 429,328 416,324" stroke="#8080c0" stroke-width="2"/>
   <text x="252" y="323" fill="#000000" font-size="14" font-family="'Arial Nova'" text-anchor="middle">пронађи продавце за поруџбину(поруџбина)</text>
   <polyline fill="none" points="429,290 75,290" stroke="#8080c0" stroke-width="2"/>
   <polyline fill="none" points="89,286 75,290 89,294" stroke="#8080c0" stroke-width="2"/>
   <text x="251" y="281" fill="#000000" font-size="14" font-family="'Arial Nova'" text-anchor="middle">поруџбина:= поруџбина креирана</text>
   <polyline fill="none" points="75,127 429,127" stroke="#8080c0" stroke-width="2"/>
   <polyline fill="none" points="416,123 429,127 416,131" stroke="#8080c0" stroke-width="2"/>
   <text x="252" y="121" fill="#000000" font-size="14" font-family="'Arial Nova'" text-anchor="middle">постави поруџбину(поруџбина)</text>
   <defs>
      <linearGradient id="Gradient1" x1="0%" x2="100%" y1="0%" y2="100%" gradientUnits="objectBoundingBox">
         <stop offset="5%" stop-color="#ffffff"/>
         <stop offset="95%" stop-color="#ecf9ff"/>
      </linearGradient>
   </defs>
   <rect x="397" y="29" fill="url(#Gradient1)" width="64" height="48" stroke="#0080ff" stroke-width="2"/>
   <text x="429" y="58" fill="#000000" font-size="14" font-family="'Arial Nova'" text-anchor="middle">Систем</text>
   <polyline fill="none" points="429,77 429,509" stroke="#0080ff" stroke-width="2" stroke-dasharray="3,3"/>
   <defs>
      <linearGradient id="Gradient2" x1="0%" x2="100%" y1="0%" y2="100%" gradientUnits="objectBoundingBox">
         <stop offset="5%" stop-color="#ffffff"/>
         <stop offset="95%" stop-color="#d0d0e8"/>
      </linearGradient>
   </defs>
   <ellipse cx="429" cy="149" rx="3" ry="3" fill="url(#Gradient2)" stroke="#0080ff" stroke-width="2" stroke-dasharray="3,3"/>
   <defs>
      <linearGradient id="Gradient3" x1="0%" x2="100%" y1="0%" y2="100%" gradientUnits="objectBoundingBox">
         <stop offset="5%" stop-color="#ffffff"/>
         <stop offset="95%" stop-color="#ffffc0"/>
      </linearGradient>
   </defs>
   <ellipse cx="75" cy="37" rx="8" ry="8" fill="url(#Gradient3)" stroke="#0080ff" stroke-width="2"/>
   <line x1="75" x2="75" y1="45" y2="61" stroke="#0080ff" stroke-width="2"/>
   <line x1="59" x2="91" y1="53" y2="53" stroke="#0080ff" stroke-width="2"/>
   <line x1="59" x2="75" y1="77" y2="61" stroke="#0080ff" stroke-width="2"/>
   <line x1="91" x2="75" y1="77" y2="61" stroke="#0080ff" stroke-width="2"/>
   <text x="78" y="97" fill="#000000" font-size="14" font-family="'Arial Nova'" text-anchor="middle">Корисник</text>
   <polyline fill="none" points="75,77 75,509" stroke="#0080ff" stroke-width="2" stroke-dasharray="3,3"/>
   <text x="63" y="163" fill="#000000" font-size="12" font-family="'Arial Nova'">Aутоматска размена ✔️</text>
   <polyline fill="none" points="27,245 479,245" stroke="#000000" stroke-width="1" stroke-dasharray="16,8"/>
   <text x="33" y="259" fill="#000000" font-size="12" font-family="'Arial Nova'">Аутоматска размена ❌</text>
   <polyline fill="none" points="27,149 479,149 479,495 27,495 27,149" stroke="#d0d0e8" stroke-width="2"/>
   <polygon fill="#ffffff" points="27,149 27,168 47,168 53,162 53,149 27,149" stroke="#d0d0e8" stroke-width="2" stroke-linejoin="miter"/>
   <text x="31" y="162" fill="#000000" font-size="12" font-family="'Arial Nova'">alt</text>
</svg>
