<svg xmlns="http://www.w3.org/2000/svg" xmlns:xlink="http://www.w3.org/1999/xlink" viewBox="0 0 38.144 23.008">
    <path fill="#2e2e2e" d="M 29.952 22.752 L 26.528 22.752 L 18.304 1.152 L 21.28 0 L 28.32 19.424 L 35.392 0.096 L 38.144 1.152 L 29.952 22.752 Z M 0 22.688 L 0 0.416 Q 1.504 0.256 2.944 0.176 A 48.419 48.419 0 0 1 4.284 0.121 Q 4.968 0.102 5.726 0.098 A 82.108 82.108 0 0 1 6.24 0.096 A 15.555 15.555 0 0 1 8.59 0.264 Q 10.029 0.485 11.216 0.992 Q 13.312 1.888 14.672 3.456 Q 16.032 5.024 16.688 7.088 A 14.162 14.162 0 0 1 17.319 10.607 A 16.482 16.482 0 0 1 17.344 11.52 A 14.499 14.499 0 0 1 16.87 15.263 A 13.377 13.377 0 0 1 16.672 15.936 Q 16 18.016 14.608 19.6 A 9.27 9.27 0 0 1 11.966 21.664 A 11.282 11.282 0 0 1 11.056 22.096 Q 8.896 23.008 5.888 23.008 Q 4.492 23.008 3.367 22.952 A 32.481 32.481 0 0 1 2.704 22.912 Q 1.344 22.816 0 22.688 Z M 3.04 2.88 L 3.04 20.192 Q 3.712 20.288 4.448 20.32 A 34.325 34.325 0 0 0 5.588 20.35 A 38.813 38.813 0 0 0 5.984 20.352 A 12.13 12.13 0 0 0 7.957 20.201 Q 9.029 20.024 9.905 19.64 A 6.409 6.409 0 0 0 10.688 19.232 Q 12.512 18.112 13.376 16.112 A 10.333 10.333 0 0 0 14.097 13.528 A 13.601 13.601 0 0 0 14.24 11.52 Q 14.24 9.216 13.376 7.2 Q 12.512 5.184 10.72 3.952 A 6.686 6.686 0 0 0 8.463 2.973 Q 7.406 2.72 6.144 2.72 Q 5.216 2.72 4.448 2.768 Q 3.68 2.816 3.04 2.88 Z" />
</svg>